<svg width="470" height="470" viewBox="0 0 470 470" fill="none" xmlns="http://www.w3.org/2000/svg">
<g clip-path="url(#clip0_84_347)">
<path d="M234.97 469.94C105.41 469.94 0 364.53 0 234.97C0 105.41 105.41 0 234.97 0C364.53 0 469.94 105.41 469.94 234.97C469.94 364.53 364.53 469.94 234.97 469.94ZM234.97 11.88C111.96 11.88 11.88 111.96 11.88 234.97C11.88 357.98 111.96 458.06 234.97 458.06C357.98 458.06 458.06 357.98 458.06 234.97C458.06 111.96 357.98 11.88 234.97 11.88ZM234.97 426.32C129.46 426.32 43.62 340.48 43.62 234.97C43.62 129.46 129.46 43.62 234.97 43.62C340.48 43.62 426.32 129.46 426.32 234.97C426.32 340.48 340.48 426.32 234.97 426.32ZM234.97 55.51C136.01 55.51 55.5 136.02 55.5 234.98C55.5 333.94 136.01 414.45 234.97 414.45C333.93 414.45 414.44 333.94 414.44 234.98C414.44 136.02 333.93 55.5 234.97 55.5V55.51Z" fill="white"/>
<path d="M233.339 369.14L213.249 345.17C207.679 338.53 197.999 331.03 186.779 322.34C152.539 295.81 100.799 255.72 91.5391 173.85L90.7891 167.24H146.419L147.139 172.35C154.959 227.48 189.919 254.56 220.769 278.46L220.989 278.63C225.879 282.42 230.559 286.05 235.049 289.72C239.449 286.23 243.989 282.78 248.409 279.42C279.609 255.7 314.979 228.82 322.749 172.37L323.459 167.24H379.119L378.419 173.81C369.519 257.1 318.939 295.54 281.999 323.61C271.389 331.67 261.359 339.28 254.749 346.32L233.349 369.13L233.339 369.14ZM104.199 179.13C114.889 251.63 162.339 288.39 194.049 312.96C205.809 322.06 215.969 329.93 222.349 337.55L233.839 351.26L246.079 338.22C253.369 330.45 263.779 322.55 274.799 314.17C309.009 288.17 355.499 252.83 365.779 179.14H333.719C323.949 236.93 287.689 264.5 255.589 288.9C249.949 293.18 244.119 297.62 238.729 302.02L234.899 305.15L231.129 301.95C225.689 297.34 219.869 292.82 213.699 288.04L213.479 287.87C181.789 263.32 145.989 235.58 136.169 179.14H104.189L104.199 179.13Z" fill="white"/>
</g>
<defs>
<clipPath id="clip0_84_347">
<rect width="469.94" height="469.94" fill="white"/>
</clipPath>
</defs>
</svg>
