<svg width="475" height="475" viewBox="0 0 475 475" fill="none" xmlns="http://www.w3.org/2000/svg">
<g clip-path="url(#clip0_84_381)">
<path d="M237.25 474.49C106.43 474.49 0 368.06 0 237.25C0 106.44 106.43 0 237.25 0C368.07 0 474.5 106.43 474.5 237.25C474.5 368.07 368.07 474.5 237.25 474.5V474.49ZM237.25 45.18C131.35 45.18 45.19 131.34 45.19 237.24C45.19 343.14 131.35 429.3 237.25 429.3C343.15 429.3 429.31 343.14 429.31 237.24C429.31 131.34 343.15 45.19 237.25 45.19V45.18Z" fill="white"/>
<path d="M334.269 173.25C325.889 234.16 288.439 262.7 254.889 288.2C248.789 292.83 242.859 297.35 237.259 301.92C231.459 297 225.199 292.15 218.759 287.16C185.609 261.48 148.599 232.75 140.169 173.24H94.7793C104.049 255.19 155.709 295.47 191.089 322.89C202.999 332.11 213.279 340.08 219.459 347.45L235.819 366.96L253.249 348.39C260.419 340.75 271.019 332.69 282.239 324.17C320.219 295.3 370.809 256.57 379.719 173.24H334.279L334.269 173.25Z" fill="white"/>
</g>
<defs>
<clipPath id="clip0_84_381">
<rect width="474.49" height="474.49" fill="white"/>
</clipPath>
</defs>
</svg>
